<svg width="42" height="42" viewBox="0 0 42 42" fill="none" xmlns="http://www.w3.org/2000/svg">
<g clip-path="url(#clip0_2180_412)">
<circle cx="21" cy="21" r="21" fill="#1A1A1A"/>
<path d="M8.376 15.8H10.536V23.656C10.536 24.3707 10.3867 24.9893 10.088 25.512C9.78933 26.024 9.37333 26.4187 8.84 26.696C8.31733 26.9733 7.72 27.112 7.048 27.112C6.19467 27.112 5.48 26.9093 4.904 26.504C4.328 26.088 3.93333 25.4907 3.72 24.712L5.624 24.216C5.688 24.44 5.77867 24.6373 5.896 24.808C6.024 24.968 6.184 25.0907 6.376 25.176C6.568 25.2613 6.78133 25.304 7.016 25.304C7.29333 25.304 7.53333 25.24 7.736 25.112C7.93867 24.9733 8.09333 24.7867 8.2 24.552C8.31733 24.3173 8.376 24.056 8.376 23.768V15.8ZM18.9701 19.032C18.9701 18.5627 18.8208 18.2107 18.5221 17.976C18.2235 17.7307 17.8021 17.608 17.2581 17.608H14.5221V20.44H17.2421C17.7861 20.44 18.2075 20.3227 18.5061 20.088C18.8155 19.8427 18.9701 19.4907 18.9701 19.032ZM12.3621 27V15.8H17.5621C18.3408 15.8 18.9968 15.9333 19.5301 16.2C20.0635 16.456 20.4635 16.808 20.7301 17.256C21.0075 17.6933 21.1461 18.1893 21.1461 18.744C21.1461 19.2347 21.0555 19.6507 20.8741 19.992C20.6928 20.3333 20.4421 20.6053 20.1221 20.808C19.8128 21 19.4555 21.1333 19.0501 21.208V21.336C19.5408 21.4 19.9621 21.5387 20.3141 21.752C20.6661 21.9547 20.9381 22.2427 21.1301 22.616C21.3221 22.9893 21.4181 23.4427 21.4181 23.976C21.4181 24.5627 21.2741 25.0853 20.9861 25.544C20.6981 25.992 20.2768 26.3493 19.7221 26.616C19.1781 26.872 18.5221 27 17.7541 27H12.3621ZM14.5221 25.192H17.4661C18.0315 25.192 18.4688 25.0693 18.7781 24.824C19.0981 24.568 19.2581 24.2 19.2581 23.72C19.2581 23.2187 19.0875 22.84 18.7461 22.584C18.4155 22.328 17.9728 22.2 17.4181 22.2H14.5221V25.192ZM23.9895 27.112C23.5948 27.112 23.2695 26.9893 23.0135 26.744C22.7682 26.488 22.6455 26.184 22.6455 25.832C22.6455 25.4693 22.7682 25.1653 23.0135 24.92C23.2695 24.664 23.5948 24.536 23.9895 24.536C24.3735 24.536 24.6882 24.664 24.9335 24.92C25.1895 25.1653 25.3175 25.4693 25.3175 25.832C25.3175 26.184 25.1895 26.488 24.9335 26.744C24.6882 26.9893 24.3735 27.112 23.9895 27.112ZM33.3264 19.256C33.3264 18.7547 33.1717 18.3547 32.8624 18.056C32.5637 17.7573 32.0944 17.608 31.4544 17.608H29.0704V20.92H31.4544C31.881 20.92 32.233 20.856 32.5104 20.728C32.7877 20.5893 32.9904 20.3973 33.1184 20.152C33.257 19.896 33.3264 19.5973 33.3264 19.256ZM31.5184 15.8C32.425 15.8 33.1717 15.96 33.7584 16.28C34.3557 16.5893 34.7984 17.0107 35.0864 17.544C35.385 18.0667 35.5344 18.6373 35.5344 19.256C35.5344 19.672 35.4597 20.088 35.3104 20.504C35.161 20.9093 34.9264 21.2827 34.6064 21.624C34.2864 21.9547 33.8704 22.2213 33.3584 22.424C32.857 22.6267 32.2437 22.728 31.5184 22.728H29.0704V27H26.9104V15.8H31.5184ZM32.7344 22.008L35.7584 27H33.3424L30.4464 22.008H32.7344Z" fill="#B6FF50"/>
</g>
<defs>
<clipPath id="clip0_2180_412">
<rect width="42" height="42" fill="white"/>
</clipPath>
</defs>
</svg>
